<mxfile host="Electron" agent="Mozilla/5.0 (Windows NT 10.0; Win64; x64) AppleWebKit/537.36 (KHTML, like Gecko) draw.io/26.1.1 Chrome/132.0.6834.210 Electron/34.3.3 Safari/537.36" version="26.1.1" pages="2">
  <diagram id="prtHgNgQTEPvFCAcTncT" name="Page-1">
    <mxGraphModel dx="1615" dy="620" grid="1" gridSize="10" guides="1" tooltips="1" connect="1" arrows="1" fold="1" page="1" pageScale="1" pageWidth="827" pageHeight="1169" math="0" shadow="0">
      <root>
        <mxCell id="0" />
        <mxCell id="1" parent="0" />
        <mxCell id="YBZFbuncThqZ0Q1U-lp3-11" value="Layoff Inbox" style="swimlane;startSize=20;" vertex="1" parent="1">
          <mxGeometry x="100" y="60" width="120" height="480" as="geometry" />
        </mxCell>
        <mxCell id="YBZFbuncThqZ0Q1U-lp3-14" value="" style="rounded=1;whiteSpace=wrap;html=1;" vertex="1" parent="YBZFbuncThqZ0Q1U-lp3-11">
          <mxGeometry x="35" y="40" width="50" height="20" as="geometry" />
        </mxCell>
        <mxCell id="YBZFbuncThqZ0Q1U-lp3-12" value="layoff-ingest" style="swimlane;startSize=20;" vertex="1" parent="1">
          <mxGeometry x="260" y="60" width="120" height="480" as="geometry" />
        </mxCell>
        <mxCell id="YBZFbuncThqZ0Q1U-lp3-16" value="" style="rounded=1;whiteSpace=wrap;html=1;" vertex="1" parent="YBZFbuncThqZ0Q1U-lp3-12">
          <mxGeometry x="35" y="40" width="50" height="20" as="geometry" />
        </mxCell>
        <mxCell id="YBZFbuncThqZ0Q1U-lp3-13" value="OpenSearch" style="swimlane;startSize=20;" vertex="1" parent="1">
          <mxGeometry x="420" y="60" width="120" height="480" as="geometry" />
        </mxCell>
        <mxCell id="YBZFbuncThqZ0Q1U-lp3-20" value="" style="rounded=1;whiteSpace=wrap;html=1;" vertex="1" parent="YBZFbuncThqZ0Q1U-lp3-13">
          <mxGeometry x="35" y="40" width="50" height="20" as="geometry" />
        </mxCell>
        <mxCell id="YBZFbuncThqZ0Q1U-lp3-17" value="" style="edgeStyle=orthogonalEdgeStyle;rounded=0;orthogonalLoop=1;jettySize=auto;html=1;" edge="1" parent="1" source="YBZFbuncThqZ0Q1U-lp3-14" target="YBZFbuncThqZ0Q1U-lp3-16">
          <mxGeometry relative="1" as="geometry" />
        </mxCell>
        <mxCell id="YBZFbuncThqZ0Q1U-lp3-21" value="" style="edgeStyle=orthogonalEdgeStyle;rounded=0;orthogonalLoop=1;jettySize=auto;html=1;" edge="1" parent="1" source="YBZFbuncThqZ0Q1U-lp3-16" target="YBZFbuncThqZ0Q1U-lp3-20">
          <mxGeometry relative="1" as="geometry" />
        </mxCell>
        <mxCell id="YBZFbuncThqZ0Q1U-lp3-22" value="layoff-api" style="swimlane;startSize=20;" vertex="1" parent="1">
          <mxGeometry x="570" y="60" width="120" height="480" as="geometry" />
        </mxCell>
        <mxCell id="YBZFbuncThqZ0Q1U-lp3-23" value="" style="rounded=1;whiteSpace=wrap;html=1;" vertex="1" parent="YBZFbuncThqZ0Q1U-lp3-22">
          <mxGeometry x="35" y="40" width="50" height="20" as="geometry" />
        </mxCell>
      </root>
    </mxGraphModel>
  </diagram>
  <diagram id="DDMGIeBaeLBGOG5dMsPG" name="Arch">
    <mxGraphModel dx="2586" dy="1085" grid="1" gridSize="10" guides="1" tooltips="1" connect="1" arrows="1" fold="1" page="1" pageScale="1" pageWidth="850" pageHeight="1100" math="0" shadow="0">
      <root>
        <mxCell id="0" />
        <mxCell id="1" parent="0" />
        <mxCell id="5VgrTcRLiQh2M2tMitcX-1" value="Kafka" style="image;aspect=fixed;html=1;points=[];align=center;fontSize=12;image=img/lib/azure2/analytics/Event_Hubs.svg;" parent="1" vertex="1">
          <mxGeometry x="730" y="520.5" width="67" height="60" as="geometry" />
        </mxCell>
        <mxCell id="5VgrTcRLiQh2M2tMitcX-16" style="edgeStyle=orthogonalEdgeStyle;rounded=0;orthogonalLoop=1;jettySize=auto;html=1;" parent="1" source="5VgrTcRLiQh2M2tMitcX-2" target="5VgrTcRLiQh2M2tMitcX-15" edge="1">
          <mxGeometry relative="1" as="geometry" />
        </mxCell>
        <mxCell id="EjHSC4pQQv4ryAlzztyH-1" style="edgeStyle=orthogonalEdgeStyle;rounded=0;orthogonalLoop=1;jettySize=auto;html=1;" edge="1" parent="1" source="5VgrTcRLiQh2M2tMitcX-2" target="5VgrTcRLiQh2M2tMitcX-1">
          <mxGeometry relative="1" as="geometry" />
        </mxCell>
        <mxCell id="5VgrTcRLiQh2M2tMitcX-2" value="artingest" style="image;aspect=fixed;html=1;points=[];align=center;fontSize=12;image=img/lib/azure2/app_services/App_Services.svg;" parent="1" vertex="1">
          <mxGeometry x="590" y="518.5" width="64" height="64" as="geometry" />
        </mxCell>
        <mxCell id="5VgrTcRLiQh2M2tMitcX-4" value="layoff-api" style="image;aspect=fixed;html=1;points=[];align=center;fontSize=12;image=img/lib/azure2/app_services/App_Services.svg;" parent="1" vertex="1">
          <mxGeometry x="260" y="518.5" width="64" height="64" as="geometry" />
        </mxCell>
        <mxCell id="5VgrTcRLiQh2M2tMitcX-17" style="edgeStyle=orthogonalEdgeStyle;rounded=0;orthogonalLoop=1;jettySize=auto;html=1;" parent="1" source="5VgrTcRLiQh2M2tMitcX-5" target="5VgrTcRLiQh2M2tMitcX-4" edge="1">
          <mxGeometry relative="1" as="geometry" />
        </mxCell>
        <mxCell id="5VgrTcRLiQh2M2tMitcX-5" value="Web" style="image;aspect=fixed;html=1;points=[];align=center;fontSize=12;image=img/lib/azure2/preview/Static_Apps.svg;" parent="1" vertex="1">
          <mxGeometry x="70" y="523.5" width="68" height="54" as="geometry" />
        </mxCell>
        <mxCell id="5VgrTcRLiQh2M2tMitcX-10" style="edgeStyle=orthogonalEdgeStyle;rounded=0;orthogonalLoop=1;jettySize=auto;html=1;" parent="1" source="5VgrTcRLiQh2M2tMitcX-7" target="5VgrTcRLiQh2M2tMitcX-2" edge="1">
          <mxGeometry relative="1" as="geometry" />
        </mxCell>
        <mxCell id="5VgrTcRLiQh2M2tMitcX-7" value="Crawler" style="image;aspect=fixed;html=1;points=[];align=center;fontSize=12;image=img/lib/azure2/app_services/App_Services.svg;" parent="1" vertex="1">
          <mxGeometry x="590" y="750" width="64" height="64" as="geometry" />
        </mxCell>
        <mxCell id="5VgrTcRLiQh2M2tMitcX-12" style="edgeStyle=orthogonalEdgeStyle;rounded=0;orthogonalLoop=1;jettySize=auto;html=1;entryX=1;entryY=0.5;entryDx=0;entryDy=0;entryPerimeter=0;" parent="1" source="5VgrTcRLiQh2M2tMitcX-2" target="EjHSC4pQQv4ryAlzztyH-3" edge="1">
          <mxGeometry relative="1" as="geometry">
            <mxPoint x="474.80780000000004" y="549.5999999999999" as="targetPoint" />
          </mxGeometry>
        </mxCell>
        <mxCell id="5VgrTcRLiQh2M2tMitcX-15" value="LLM" style="image;aspect=fixed;html=1;points=[];align=center;fontSize=12;image=img/lib/azure2/ai_machine_learning/Language_Understanding.svg;" parent="1" vertex="1">
          <mxGeometry x="588" y="320" width="68" height="68" as="geometry" />
        </mxCell>
        <mxCell id="5VgrTcRLiQh2M2tMitcX-18" style="edgeStyle=orthogonalEdgeStyle;rounded=0;orthogonalLoop=1;jettySize=auto;html=1;entryX=0;entryY=0.5;entryDx=0;entryDy=0;entryPerimeter=0;" parent="1" source="5VgrTcRLiQh2M2tMitcX-4" target="EjHSC4pQQv4ryAlzztyH-3" edge="1">
          <mxGeometry relative="1" as="geometry">
            <mxPoint x="425.18089999999984" y="549.5999999999999" as="targetPoint" />
          </mxGeometry>
        </mxCell>
        <mxCell id="EjHSC4pQQv4ryAlzztyH-3" value="" style="outlineConnect=0;dashed=0;verticalLabelPosition=bottom;verticalAlign=top;align=center;html=1;shape=mxgraph.aws3.elasticsearch_service;fillColor=#F58534;gradientColor=none;" vertex="1" parent="1">
          <mxGeometry x="419" y="510" width="67.5" height="81" as="geometry" />
        </mxCell>
      </root>
    </mxGraphModel>
  </diagram>
</mxfile>
